{"title":"The Pretty Reckless - Make Me Wanna Die [KingPinVideos]","uid":5842510,"size":85110445,"categoryP":"video","categoryS":"music_videos","magnet":"?xt=urn:btih:ed40b79c2c9d6f4a5c884ff10240c041116e8023&amp;dn=The+Pretty+Reckless+-+Make+Me+Wanna+Die+%5BKingPinVideos%5D&amp;tr=udp%3A%2F%2Ftracker.openbittorrent.com%3A80&amp;tr=udp%3A%2F%2Fopen.demonii.com%3A1337&amp;tr=udp%3A%2F%2Ftracker.coppersurfer.tk%3A6969&amp;tr=udp%3A%2F%2Fexodus.desync.com%3A6969","seeders":0,"leechers":0,"uploader":"KingPinMan","files":5,"time":1285020058,"description":"[img]http://img843.imageshack.us/img843/9642/theprittydie.png[/img]\n\n[img]http://img208.imageshack.us/img208/4153/theprittydie2.png[/img]\n\n[code]General\nComplete name                    : [img]http://img843.imageshack.us/img843/9642/theprittydie.png[/img]\n\n[img]http://img208.imageshack.us/img208/4153/theprittydie2.png[/img]\n\n[code]General\nComplete name                    : The Pretty Reckless - Make Me Wanna Die [KingPinVideos].mpg\nFormat                           : MPEG-PS\nFile size                        : 81.2 MiB\nDuration                         : 3mn 58s\nOverall bit rate                 : 2 856 Kbps\nWriting library                  : encoded by TMPGEnc 4.0 XPress Version. 4.7.4.299\n\nVideo\nID                               : 224 (0xE0)\nFormat                           : MPEG Video\nFormat version                   : Version 1\nFormat settings, BVOP            : Yes\nFormat settings, Matrix          : Default\nDuration                         : 3mn 58s\nBit rate mode                    : Constant\nBit rate                         : 2 615 Kbps\nNominal bit rate                 : 2 700 Kbps\nWidth                            : 384 pixels\nHeight                           : 208 pixels\nDisplay aspect ratio             : 16:9\nFrame rate                       : 29.970 fps\nResolution                       : 8 bits\nScan type                        : Progressive\nBits/(Pixel*Frame)               : 1.092\nStream size                      : 74.3 MiB (92%)\nWriting library                  : TMPGEnc XPress 4.7.4.299\n\nAudio\nID                               : 192 (0xC0)\nFormat                           : MPEG Audio\nFormat version                   : Version 1\nFormat profile                   : Layer 2\nDuration                         : 3mn 58s\nBit rate mode                    : Constant\nBit rate                         : 128 Kbps\nChannel(s)                       : 2 channels\nSampling rate                    : 48.0 KHz\nStream size                      : 3.64 MiB (4%)\n\n[/code] [KingPinVideos].mpg\nFormat                           : MPEG-PS\nFile size                        : 81.2 MiB\nDuration                         : 3mn 58s\nOverall bit rate                 : 2 856 Kbps\nWriting library                  : encoded by TMPGEnc 4.0 XPress Version. 4.7.4.299\n\nVideo\nID                               : 224 (0xE0)\nFormat                           : MPEG Video\nFormat version                   : Version 1\nFormat settings, BVOP            : Yes\nFormat settings, Matrix          : Default\nDuration                         : 3mn 58s\nBit rate mode                    : Constant\nBit rate                         : 2 615 Kbps\nNominal bit rate                 : 2 700 Kbps\nWidth                            : 384 pixels\nHeight                           : 208 pixels\nDisplay aspect ratio             : 16:9\nFrame rate                       : 29.970 fps\nResolution                       : 8 bits\nScan type                        : Progressive\nBits/(Pixel*Frame)               : 1.092\nStream size                      : 74.3 MiB (92%)\nWriting library                  : TMPGEnc XPress 4.7.4.299\n\nAudio\nID                               : 192 (0xC0)\nFormat                           : MPEG Audio\nFormat version                   : Version 1\nFormat profile                   : Layer 2\nDuration                         : 3mn 58s\nBit rate mode                    : Constant\nBit rate                         : 128 Kbps\nChannel(s)                       : 2 channels\nSampling rate                    : 48.0 KHz\nStream size                      : 3.64 MiB (4%)\n\n[/code]","torrent":{"xt":"urn:btih:ed40b79c2c9d6f4a5c884ff10240c041116e8023","amp;dn":"The+Pretty+Reckless+-+Make+Me+Wanna+Die+%5BKingPinVideos%5D","amp;tr":["udp%3A%2F%2Ftracker.openbittorrent.com%3A80","udp%3A%2F%2Fopen.demonii.com%3A1337","udp%3A%2F%2Ftracker.coppersurfer.tk%3A6969","udp%3A%2F%2Fexodus.desync.com%3A6969"],"infoHash":"ed40b79c2c9d6f4a5c884ff10240c041116e8023","infoHashBuffer":{"type":"Buffer","data":[237,64,183,156,44,157,111,74,92,136,79,241,2,64,192,65,17,110,128,35]},"announce":[],"urlList":[]}}